<svg xmlns="http://www.w3.org/2000/svg" viewBox="290 205 460 600" fill="none">
  <defs>
    <linearGradient id="snyf-gradient" x1="0%" y1="0%" x2="100%" y2="100%">
      <stop offset="0%" stop-color="#6FB7D6" />
      <stop offset="100%" stop-color="#A59BB7" />
    </linearGradient>
  </defs>
  <path d="M 545.500 217.030 C 524.226 220.316, 502.003 231.768, 483.981 248.733 C 448.819 281.833, 422.448 337.634, 401.087 424.134 C 388.150 476.521, 382.288 517.708, 383.316 549 C 384.599 588.041, 394.818 610.893, 415.560 621.104 C 421.010 623.787, 423.463 624.355, 431.387 624.770 C 451.756 625.835, 461.447 619.381, 487.698 587.270 C 510.136 559.823, 524.938 546.615, 543.378 537.585 C 557.397 530.720, 569.200 528, 584.968 528 C 605.834 528, 618.436 532.166, 630.213 542.958 C 645.364 556.841, 650.843 579.426, 644.449 601.638 C 634.739 635.369, 600.050 661.214, 550.784 671.422 C 531.560 675.406, 518.429 676.317, 489.098 675.702 C 466.098 675.219, 458.848 674.649, 435.500 671.486 C 402.131 666.964, 376.647 665.882, 362.322 668.377 C 343.381 671.675, 331.756 677.263, 320.454 688.500 C 307.781 701.100, 302.978 712.386, 303.024 729.460 C 303.054 740.563, 304.125 745.443, 308.554 754.667 C 321.085 780.763, 354.131 794.178, 406 794.225 C 427.882 794.245, 442.730 793.007, 464 789.389 C 543.382 775.888, 617.688 743.093, 668.256 699.241 C 707.931 664.835, 731.169 626.059, 738.511 582.010 C 740.800 568.281, 740.117 541.774, 737.145 529 C 729.739 497.162, 712.126 471.116, 686.873 454.657 C 667.594 442.091, 648.307 436.683, 623 436.747 C 582.969 436.848, 547.507 452.865, 516.980 484.634 C 506.596 495.441, 498.888 505.289, 483.431 527.500 C 465.304 553.547, 457.749 560, 445.380 560 C 440.507 560, 438.550 559.466, 434.874 557.135 C 428.263 552.943, 426.500 548.703, 426.500 537 C 426.500 528.449, 426.809 526.851, 429.593 521 C 439.059 501.103, 461.024 479.871, 529.570 424.361 C 609.162 359.905, 633.551 326.425, 631.774 284.058 C 630.948 264.346, 624.620 249.708, 611 236.005 C 598.166 223.092, 583.814 217.266, 563 216.517 C 556.675 216.289, 548.800 216.520, 545.500 217.030" fill="url(#snyf-gradient)" fill-rule="evenodd" />
</svg>
